<?xml version="1.0" encoding="UTF-8"?>
<svg width="19px" height="19px" viewBox="0 0 19 19" version="1.1" xmlns="http://www.w3.org/2000/svg" xmlns:xlink="http://www.w3.org/1999/xlink" role="img" alt="facebook">
    <g stroke="none" stroke-width="1" fill="none" fill-rule="evenodd">
        <g transform="translate(-678.000000, -4352.000000)" fill="#0060DD" fill-rule="nonzero">
            <g transform="translate(-36.000000, 4274.000000)">
                <g transform="translate(632.000000, 62.000000)">
                    <path d="M101,17.1875 L101,33.8125 C101,34.4619141 100.461914,35 99.8125,35 L95.0625,35 L95.0625,27.6152344 L97.4375,27.6152344 L97.8364258,24.878418 L95.0625,24.878418 L95.0625,22.7260742 C95.0625,21.9467773 95.4614258,21.5014648 96.25,21.5014648 L98.03125,21.5014648 L98.03125,19.0336914 L97.7649006,18.9980108 C97.4390885,18.9595609 96.836712,18.9038086 96.0830078,18.9038086 C93.4760742,18.9038086 92.1586914,20.3510742 92.1586914,22.5126953 L92.1586914,24.878418 L89.7836914,24.878418 L89.7836914,27.6152344 L92.1586914,27.6152344 L92.1586914,35 L83.1875,35 C82.5380859,35 82,34.4619141 82,33.8125 L82,17.1875 C82,16.5380859 82.5380859,16 83.1875,16 L99.8125,16 C100.461914,16 101,16.5380859 101,17.1875 Z"></path>
                </g>
            </g>
        </g>
    </g>
</svg>