<?xml version="1.0" encoding="UTF-8"?>
<svg width="19px" height="19px" viewBox="0 0 19 19" version="1.1" xmlns="http://www.w3.org/2000/svg" xmlns:xlink="http://www.w3.org/1999/xlink" role="img" altt="instagram">
    <g stroke="none" stroke-width="1" fill="none" fill-rule="evenodd">
        <g transform="translate(-612.000000, -4352.000000)" fill="#0060DD">
            <g transform="translate(-36.000000, 4274.000000)">
                <g transform="translate(632.000000, 62.000000)">
                    <path d="M29.6594793,25.5 C29.6594793,23.2076201 27.7920543,21.3401436 25.4997377,21.3401436 C23.2074211,21.3401436 21.3405207,23.2076201 21.3405207,25.5 C21.3405207,27.7923799 23.2074211,29.6598564 25.4997377,29.6598564 C27.7920543,29.6598564 29.6594793,27.7923799 29.6594793,25.5 L29.6594793,25.5 Z M20,16 L31,16 C33.209139,16 35,17.790861 35,20 L35,31 C35,33.209139 33.209139,35 31,35 L20,35 C17.790861,35 16,33.209139 16,31 L16,20 C16,17.790861 17.790861,16 20,16 Z M25.4997377,22.6673109 C27.0634439,22.6673109 28.3328732,23.9367753 28.3328732,25.5 C28.3328732,27.0632247 27.0634439,28.3326891 25.4997377,28.3326891 C23.9365561,28.3326891 22.6671268,27.0632247 22.6671268,25.5 C22.6671268,23.9367753 23.9365561,22.6673109 25.4997377,22.6673109 Z M31.52,18 C32.3594728,18 33.04,18.6805272 33.04,19.52 C33.04,20.3594728 32.3594728,21.04 31.52,21.04 C30.6805272,21.04 30,20.3594728 30,19.52 C30,18.6805272 30.6805272,18 31.52,18 Z"></path>
                </g>
            </g>
        </g>
    </g>
</svg>