<svg xmlns="http://www.w3.org/2000/svg" xmlns:xlink="http://www.w3.org/1999/xlink" viewBox="0 0 153 62" id="svg-replaced-1" class="style-svg replaced-svg svg-replaced-1">
    <defs>
        <path id="a" d="M.088.089h23.07v20.435H.088z"></path>
    </defs>
    <g fill="none" fill-rule="evenodd">
        <path class="svg-name" fill="#f8c74f" d="M16.536 30.843l4.372 1.943c-1.624 2.688-5.146 4.934-9.867 5.264C4.446 38.512 0 35.4 0 29.501s4.446-9.633 11.24-10.108c4.522-.316 8.02 1.488 9.593 3.877l-4.396 2.557c-1.15-1.719-2.923-2.444-5.271-2.28-3.597.252-5.995 2.244-5.995 5.592 0 3.35 2.398 5.006 5.995 4.754 2.348-.164 4.146-1.09 5.37-3.05M42.877 17.754v17.494l-5.096.356v-6.772l-10.492.734v6.772l-5.095.357V19.2l5.095-.356v6.522l10.492-.734v-6.522zM59.29 27.127l-3.022-5.987-3.048 6.411 6.07-.424zm1.774 3.5l-9.592.67-1.649 3.465-5.346.374 9.043-18.127 5.57-.39 9.043 16.861-5.42.38-1.65-3.234zM81.6 23.317c1.823-.128 3.147-.72 3.147-2.42s-1.324-2.106-3.148-1.979l-6.844.48v4.397l6.844-.478zm2.947 9.015l-4.621-5.2-5.146.36v5.523l-5.071.355V15.877l12.265-.859c4.471-.313 7.943 1.419 7.943 5.417 0 2.924-1.848 4.903-4.596 5.895l5.146 5.588-5.92.414zM109.015 26.521v4.099L92.153 31.8V14.306l5.096-.356v13.395zM129.485 25.289v3.898l-18.66 1.306V13l18.385-1.287v3.899l-13.364.935v2.874l11.016-.771v3.723l-11.016.771v3.1zM151.607 22.166c0 3.599-3.323 6.28-9.668 6.725-4.496.314-8.268-.646-11.016-2.653l2.673-3.336c2.074 1.604 4.946 2.378 8.443 2.133 2.998-.21 4.497-.864 4.497-2.014 0-1.125-1.4-1.402-4.996-1.45-5.196-.086-9.917-.905-9.917-4.804 0-3.748 4.047-6.08 9.592-6.469 3.747-.262 7.194.396 9.592 1.928l-2.573 3.354c-1.948-1.238-4.296-1.624-7.019-1.458-2.048.143-4.521.641-4.521 1.89 0 1.175 2.023 1.184 5.146 1.215 5.72.075 9.767.916 9.767 4.94"></path>
        <path fill="#f5efe1" class="change" d="M17.946 54.78c0-1.583-1.193-1.943-3.192-1.803l-8.218.575v4.082l8.218-.575c1.999-.14 3.192-.695 3.192-2.279zm-11.41-4.895l7.357-.515c1.888-.132 3.137-.636 3.137-2.136 0-1.472-1.25-1.8-3.137-1.669l-7.357.515v3.805zm17.213 5.156c0 3.36-3.026 5.544-7.801 5.879L.928 61.97V42.53l13.909-.974c4.775-.334 7.801 1.37 7.801 4.482 0 2.194-1.527 4.217-4.442 4.588 3.054-.02 5.553 1.417 5.553 4.416zM44.866 49.175c0-3.666-2.637-5.565-6.912-5.265-4.248.297-6.913 2.566-6.913 6.232 0 3.667 2.638 5.565 6.913 5.266 4.275-.3 6.912-2.567 6.912-6.233m-19.572 1.37c0-6.583 4.97-10.708 12.66-11.246 7.69-.538 12.687 2.89 12.687 9.472 0 6.583-4.997 10.71-12.687 11.248-7.69.538-12.66-2.892-12.66-9.474M72.054 47.273c0-3.667-2.638-5.565-6.913-5.266-4.248.297-6.913 2.567-6.913 6.233 0 3.666 2.637 5.565 6.913 5.266 4.275-.3 6.913-2.567 6.913-6.233m-19.573 1.37c0-6.583 4.97-10.708 12.66-11.247 7.69-.538 12.687 2.89 12.687 9.473 0 6.582-4.997 10.71-12.687 11.247-7.69.538-12.66-2.891-12.66-9.474M97.244 55.231l-6.524-7.903-4.303 4.133v4.528l-5.663.396V36.943l5.663-.397v9l9.939-9.695 7.051-.493-8.634 8.353 9.134 11.054zM126.347 48.862v4.333l-20.738 1.45V35.205l20.433-1.43v4.333l-14.853 1.039v3.194l12.243-.857v4.139l-12.243.856v3.444z"></path>
        <g transform="translate(129.377 32.452)" fill="none">
            <mask id="b" fill="#fff">
                <path id="a" d="M.088.089h23.07v20.435H.088z"></path>
            </mask>
            <path fill="#f5efe1" class="change" d="M13.302 9.351c2.027-.142 3.498-.8 3.498-2.689 0-1.888-1.471-2.341-3.498-2.2l-7.607.533v4.888l7.607-.532zm3.276 10.02l-5.136-5.78-5.719.401v6.138l-5.635.394V1.082L13.718.13c4.97-.348 8.829 1.576 8.829 6.02 0 3.25-2.054 5.449-5.108 6.551l5.719 6.21-6.58.46z" mask="url(#b)"></path>
        </g>
        <path fill="#f5efe1" class="change" d="M21.35 11.718c0 1.078-.996 1.882-2.9 2.015-1.347.095-2.48-.193-3.303-.795l.802-1c.622.48 1.483.713 2.532.64.899-.063 1.348-.26 1.348-.604 0-.337-.42-.42-1.498-.435-1.558-.026-2.974-.271-2.974-1.44 0-1.124 1.213-1.823 2.877-1.94 1.123-.078 2.157.12 2.876.579l-.771 1.005c-.585-.371-1.289-.487-2.105-.437-.615.043-1.356.192-1.356.567 0 .352.606.354 1.543.364 1.715.022 2.929.274 2.93 1.48M27.466 8.908l-2.18.152v4.023l-1.528.107V9.167l-2.165.151v-1.22l5.873-.412v1.222M31.026 10.592l-.906-1.795-.914 1.922 1.82-.127zm.532 1.049l-2.877.2-.494 1.04-1.603.111 2.711-5.434 1.671-.116 2.712 5.054-1.626.114-.494-.97zM40.354 6.785v5.244l-1.341.094-3.386-3.21v3.447l-1.476.103V7.22l1.618-.113 3.11 2.989V6.888l1.475-.103M46.11 9.005c0-.93-.734-1.357-1.858-1.279l-1.28.09v2.817l1.28-.09c1.124-.078 1.859-.61 1.858-1.538m1.559-.11c0 1.649-1.282 2.713-3.297 2.853l-2.929.205V6.71l2.93-.205c2.015-.14 3.295.744 3.296 2.392M52.081 7.171v.997l3.311-.232v1.191l-3.311.232v1.85l-1.528.107V6.072l5.491-.384v1.206l-3.963.277M61.589 7.922c0-.988-.712-1.5-1.866-1.42-1.147.08-1.865.692-1.865 1.681 0 .99.711 1.501 1.865 1.42 1.154-.08 1.866-.692 1.866-1.68m-5.282.369c0-1.776 1.34-2.888 3.416-3.033 2.076-.146 3.424.779 3.424 2.555 0 1.775-1.348 2.888-3.424 3.033-2.075.146-3.416-.78-3.416-2.555M67.502 7.367c.547-.038.944-.216.944-.726s-.397-.631-.944-.593l-2.052.144V7.51l2.052-.143m.884 2.702c-.461-.52-.924-1.039-1.386-1.558l-1.543.107v1.656l-1.52.106V5.136l3.678-.257c1.34-.094 2.382.425 2.382 1.624 0 .877-.554 1.47-1.378 1.767l1.543 1.675-1.776.124M89.115 8.62l-1.76-2.132-1.162 1.115v1.221l-1.528.107V3.687l1.528-.107v2.427l2.682-2.615 1.903-.133-2.33 2.253 2.465 2.982-1.798.126M96.968 6.902V8.07l-5.596.39V3.219l5.514-.386v1.169l-4.008.28v.862l3.304-.231v1.116l-3.304.231v.929l4.09-.286M104.013 2.334v5.244l-1.341.094-3.387-3.21V7.91l-1.475.103V2.768l1.618-.114 3.109 2.99V2.436l1.476-.103M110.43 3.106l-2.18.153v4.023l-1.528.107V3.366l-2.165.151V2.296l5.873-.41v1.22zM117.017 1.425v2.771c0 1.596-1.087 2.721-3.042 2.858-1.955.136-3.05-.836-3.05-2.432V1.85l1.53-.106v2.652c0 .913.508 1.47 1.52 1.399 1.011-.07 1.514-.698 1.513-1.612V1.531l1.529-.106M122.652 4.402l1.311.582c-.486.806-1.543 1.479-2.959 1.578-1.977.138-3.311-.795-3.311-2.563 0-1.768 1.333-2.887 3.371-3.03 1.356-.095 2.405.446 2.877 1.163l-1.318.766c-.345-.515-.877-.733-1.581-.684-1.079.076-1.798.673-1.798 1.677s.719 1.5 1.798 1.425c.704-.05 1.244-.327 1.61-.914M129.032 5.828l-1.76-2.131-1.161 1.115v1.22l-1.529.108V.895l1.529-.106v2.427L128.793.6l1.902-.133-2.33 2.253 2.465 2.982-1.798.125M132.638.332l1.528 2.156 1.521-2.369 1.7-.119-2.464 3.649v1.768l-1.528.106V3.755L130.93.452l1.708-.12"></path>
        <path class="svg-n" fill="#f8c74f" d="M76.374 5.356l-.676-.818-.43.467v.506l-.812.114V3.293l.812-.114v.986l1.012-1.127.983-.138-.993 1.075 1.05 1.25z"></path>
        <path class="svg-y" fill="#f8c74f" d="M78.072 2.787l.582.845.58-1.007.892-.125-1.069 1.705v.776l-.812.114v-.777l-1.069-1.406z"></path>
        <path fill="#509a83" d="M77.439 6.77c.324.114.645.237.975.34.913.284 1.846.404 2.842-.096.985-.496 1.632-1.249 1.824-2.33.073-.41.04-.435-.374-.41-.027.001-.055.005-.082.007-.868.074-1.644.464-2.364 1.017-.865.664-1.743 1.286-2.821 1.471m3.475 1.24c-.211.048-.365.092-.519.119-1.032.176-1.95-.08-2.847-.402-.877-.314-1.713-.714-2.63-.946-1.217-.308-2.258.133-3.186 1.129-.133.142-.141.246-.063.388.218.396.475.759.768 1.096.124.142.173.103.287-.059.57-.81 1.31-1.255 2.244-1.218.411.017.777.159 1.14.307.473.193.932.414 1.424.572 1.223.392 2.291-.164 3.382-.987m.063.92c-.1.06-.202.113-.298.179-1.335.912-2.656 1.076-3.977.51-.501-.215-.988-.463-1.524-.61-.723-.2-1.374.083-1.845.777-.144.212-.118.31.068.422a5.376 5.376 0 0 0 3.1.798c1.706-.079 3.207-.767 4.512-2.054.017-.024.08-.036.043-.071-.024-.022-.064.01-.079.05"></path>
        <path fill="#509a83" d="M80.977 8.929c.015-.04.055-.072.079-.05.037.035-.026.047-.043.071a.063.063 0 0 1-.036-.021"></path>
    </g>
</svg>