<svg width="1440" height="480" viewBox="0 0 1440 480" fill="none" xmlns="http://www.w3.org/2000/svg">
<rect width="1440" height="480" fill="#75D2F0"/>
<path d="M251.428 376.75C252.16 376.75 252.473 378.218 251.951 378.742C251.637 378.952 250.591 378.847 250.173 378.952C249.754 379.056 249.231 379.371 248.708 379.476C246.93 379.58 247.767 379.266 246.512 378.323C245.362 377.379 242.956 376.855 241.387 377.274C239.923 377.694 238.459 378.952 236.89 379.371C235.112 379.895 233.125 379.79 231.661 381.153C230.301 382.515 231.033 384.088 230.301 385.555C229.465 387.128 228.523 386.394 227.268 385.765C224.444 384.507 220.679 384.297 219.32 387.757C218.588 389.434 219.32 390.692 219.424 392.474C219.633 394.57 219.424 394.675 217.646 394.465C214.927 394.151 213.881 394.36 212.103 396.562C209.907 399.182 209.384 400.335 205.619 399.916C204.155 399.706 202.691 399.497 201.226 399.497C193.592 399.287 186.061 399.077 178.427 398.973C172.884 398.868 167.34 398.763 161.797 398.344C158.974 398.134 156.15 398.239 153.326 398.239C151.653 398.239 149.77 398.448 148.097 398.239C147.155 398.134 146.319 397.715 145.377 397.505C142.135 396.981 138.37 397.505 135.023 397.505C132.2 397.505 129.376 397.505 126.447 397.295C123.205 397.086 119.963 396.876 116.721 396.771C113.897 396.562 110.759 396.876 108.04 396.457C107.726 396.457 106.89 396.562 106.576 396.457C105.635 395.723 105.844 393.207 105.112 392.159C104.275 391.006 103.648 391.425 102.602 390.901C101.765 390.482 100.928 389.119 100.405 388.386C99.3596 386.918 98.9413 385.765 98.8367 384.088C98.7321 382.83 98 381.467 98 380.209C98 378.637 99.1504 378.113 99.9871 376.96C101.033 375.492 101.556 373.396 101.138 371.509C100.928 370.461 100.196 370.042 100.615 369.203C100.928 368.574 102.706 368.26 103.125 368.05C103.752 367.84 104.798 367.736 105.426 367.421C107.099 366.478 106.158 365.43 106.89 364.172C107.204 363.648 108.563 363.648 108.668 362.809C108.668 362.285 107.936 362.18 107.726 361.761C107.413 361.027 107.308 360.817 106.994 359.874C106.471 358.092 105.949 357.987 106.89 356.52C107.936 354.947 108.668 355.367 108.772 353.165C108.877 351.698 109.295 350.23 108.877 348.763C108.459 347.295 107.204 346.457 107.308 344.884C107.413 343.836 108.249 342.893 108.459 341.845C108.668 340.796 108.459 339.434 108.563 338.281C108.668 337.023 108.354 334.612 108.877 333.564C109.4 332.411 110.237 332.62 110.969 331.572C112.642 328.952 111.282 326.017 111.805 323.501C112.224 321.719 113.06 322.243 112.015 320.461C111.282 319.098 110.132 319.203 110.864 317.316C110.864 317.212 111.701 317.002 111.805 316.687C112.119 316.163 112.119 315.744 112.119 315.22C112.328 313.962 112.015 312.599 112.119 311.342C112.328 308.721 114.211 306.729 113.27 304.109C112.747 302.537 112.328 302.117 112.747 300.545C113.165 299.182 113.688 298.134 113.792 296.666C114.002 294.885 113.792 294.465 115.152 293.417C116.616 292.369 117.558 292.474 118.081 290.377C118.394 289.119 118.394 288.386 118.917 287.128C119.44 285.87 120.068 284.507 120.381 283.144C121.113 280.419 120.486 278.428 122.578 276.121C124.565 274.025 127.912 273.396 129.271 270.251C129.585 269.413 129.69 268.574 130.003 267.841C130.422 267.002 130.735 266.583 130.945 265.639C131.154 263.962 130.212 261.132 131.049 259.56C131.363 258.931 131.99 258.721 132.304 258.092C132.513 257.673 131.99 257.149 132.2 256.729C132.409 256.205 133.036 256.415 133.245 256.1C134.082 254.738 134.187 254.319 135.442 253.27C137.115 251.698 136.383 251.908 136.383 250.126C136.383 248.763 137.533 248.448 137.743 247.295C138.056 245.828 136.488 244.989 136.488 243.627C136.488 242.264 137.324 242.578 137.743 241.635C137.847 241.321 137.743 240.797 137.743 240.587C138.266 239.748 138.893 239.434 139.416 238.7C139.625 238.281 139.73 237.233 140.044 236.708C140.148 236.394 140.776 235.975 140.985 235.765C141.403 235.241 143.286 233.249 143.286 232.62C143.39 231.782 142.658 231.363 142.344 230.734C141.508 228.952 142.24 229.476 142.867 228.113C143.913 226.017 142.658 222.453 142.031 220.461C141.194 217.945 142.449 215.954 142.24 213.333C142.135 211.971 141.089 210.818 140.985 209.455C140.776 207.463 141.299 208.092 142.449 207.254C143.599 206.31 143.913 204.843 145.064 203.794C146.423 202.537 148.097 202.012 149.875 201.593C151.339 201.279 152.594 200.545 154.058 200.231C155.627 199.811 156.882 200.44 158.451 200.44C159.497 200.44 161.484 200.231 162.32 199.497C163.366 198.449 163.157 196.771 163.785 195.514C164.935 193.207 167.027 193.836 169.014 193.207C169.746 192.998 170.06 192.369 170.687 192.159C171.315 191.95 172.151 192.264 172.779 191.95C173.616 191.635 174.766 190.692 175.394 190.063C177.485 188.176 178.008 184.402 180.309 183.249C181.564 182.62 182.505 182.096 183.656 181.258C185.225 180.105 184.493 180.838 184.388 179.581C184.388 179.266 183.76 178.847 183.76 178.428C183.656 177.484 184.806 177.903 184.179 176.541C183.865 175.912 182.401 175.283 182.505 174.444C182.715 172.977 184.597 173.711 185.538 173.082C185.957 172.872 186.061 172.243 186.375 172.033C186.584 171.929 187.63 171.3 187.735 171.195C188.571 169.937 187.735 170.566 187.003 169.623C186.166 168.47 186.061 168.994 186.166 167.212C186.166 166.268 186.271 164.696 185.957 163.962C185.852 163.753 186.271 163.543 186.061 163.124C185.852 162.495 184.806 162.39 184.493 162.075C183.76 161.342 183.656 160.293 183.447 159.35C183.342 158.616 183.342 157.883 183.028 157.254C182.819 156.939 182.087 156.729 181.878 156.415C181.46 155.576 181.773 154.423 181.564 153.585C181.146 152.222 179.891 151.174 179.995 149.706C180.1 147.924 181.564 147.505 182.715 146.457C183.865 145.409 184.493 144.465 184.597 142.998C184.597 142.579 184.074 142.159 184.179 141.74C184.388 140.797 185.12 140.797 185.643 140.168C186.48 139.015 186.166 137.442 186.793 136.184C187.421 134.927 188.571 134.088 189.408 133.04C190.245 132.096 191.5 130.943 191.081 129.581C190.768 128.323 189.617 127.904 189.408 126.541C189.199 125.073 189.513 124.235 188.885 122.872C188.258 121.719 187.003 121.09 187.944 119.518C188.676 118.26 191.709 117.107 193.069 116.792C192.964 116.268 192.65 116.583 192.441 116.163C192.127 115.639 192.232 115.01 192.023 114.382C191.814 113.228 190.559 111.866 190.663 110.713C190.768 108.197 194.951 107.254 196.52 105.577C197.566 104.528 197.984 103.375 198.193 102.013C198.403 99.9161 198.612 98.3438 199.344 96.2474C199.867 94.8847 200.703 92.8931 199.867 91.5304C199.239 90.4822 197.252 90.3773 197.252 88.805C198.089 88.1761 200.703 89.0147 201.749 88.4906C203.423 87.7568 203.841 85.9748 204.887 84.6122C205.828 83.3543 207.711 82.7254 209.07 81.8868C211.267 80.4193 211.58 81.782 213.045 83.4591C215.345 86.0797 219.32 88.7002 222.98 87.5472C226.432 86.4989 225.909 82.0964 228.419 80C229.465 98.7631 230.51 117.631 231.556 136.394C232.184 148.553 232.707 160.713 233.125 172.872C233.962 195.199 234.798 217.526 235.531 239.748C235.74 244.989 235.844 250.23 235.949 255.576C236.158 263.648 236.995 271.614 237.308 279.685C237.413 282.62 237.518 285.66 237.727 288.595C237.831 290.482 237.518 293.103 237.936 294.885C238.145 295.828 239.191 296.457 239.4 297.295C239.609 298.239 239.086 298.134 238.564 298.868C237.727 299.916 237.518 300.859 237.936 302.327C238.145 303.061 238.564 303.585 238.773 304.318C238.877 304.633 239.296 306.52 239.296 306.729C239.296 307.463 238.982 307.568 238.773 308.197C238.459 309.14 238.668 309.979 238.564 311.027C238.354 312.285 237.831 312.599 237.308 313.543C236.681 314.696 236.576 315.43 236.681 316.897C236.786 318.574 237.413 322.348 238.982 323.396C239.714 323.815 240.446 323.291 240.969 323.501C241.387 323.71 241.806 324.549 242.224 324.968C242.852 325.912 243.479 326.541 243.897 327.589C244.107 328.113 243.479 328.218 243.793 328.952C244.002 329.266 244.63 329.79 244.943 330C247.035 332.096 249.545 333.669 251.323 336.289C252.578 338.071 251.428 338.7 250.8 340.692C250.173 342.683 249.963 344.57 250.382 346.562C250.486 347.295 251.114 348.553 250.8 349.182C250.382 350.021 250.695 350.335 251.114 350.44C251.428 350.545 252.16 350.335 253.415 351.488C255.402 353.27 258.226 354.633 259.062 357.253C259.167 357.358 259.167 357.358 259.272 357.568C262.305 357.568 260.527 359.56 259.794 361.027C258.958 362.809 258.017 363.962 257.18 365.849C256.343 367.736 254.565 369.727 253.938 371.614C253.728 372.138 254.042 372.662 253.833 373.082C253.624 373.606 253.101 373.92 252.892 374.339C252.683 374.759 252.578 376.541 252.055 376.541L251.428 376.75Z" fill="#2F80ED"/>
<path d="M263.742 214.667L296.414 214.667L324.261 263.98L324.812 263.98L323.434 214.667L354.589 214.667L354.589 311.92L321.09 311.92L294.07 265.491L293.519 265.491L294.898 311.92L263.742 311.92L263.742 214.667Z" fill="#2F80ED"/>
<path d="M415.11 266.178C415.11 263.614 414.145 261.507 412.215 259.859C410.377 258.211 407.85 257.387 404.633 257.387C401.141 257.387 398.43 258.348 396.5 260.271C394.57 262.194 393.467 264.163 393.191 266.178L415.11 266.178ZM442.544 276.48C442.544 277.67 442.498 278.907 442.406 280.189C442.406 281.379 442.36 282.387 442.268 283.211L393.467 283.211C393.559 284.493 393.972 285.637 394.708 286.645C395.535 287.652 396.5 288.522 397.603 289.255C398.797 289.987 400.084 290.537 401.463 290.903C402.933 291.269 404.404 291.452 405.874 291.452C408.815 291.452 411.25 290.949 413.18 289.941C415.202 288.843 416.719 287.652 417.73 286.37L440.338 297.771C437.121 302.991 432.434 307.112 426.277 310.134C420.211 313.156 413.134 314.667 405.047 314.667C399.808 314.667 394.708 313.843 389.745 312.194C384.782 310.546 380.371 308.119 376.511 304.914C372.743 301.617 369.71 297.542 367.412 292.689C365.115 287.835 363.966 282.203 363.966 275.793C363.966 269.841 365.023 264.484 367.136 259.722C369.25 254.868 372.099 250.793 375.683 247.496C379.36 244.108 383.633 241.498 388.504 239.667C393.467 237.835 398.751 236.92 404.358 236.92C410.056 236.92 415.248 237.927 419.935 239.941C424.622 241.865 428.62 244.612 431.929 248.183C435.329 251.663 437.949 255.83 439.787 260.683C441.625 265.537 442.544 270.802 442.544 276.48Z" fill="#2F80ED"/>
<path d="M497.946 311.92L466.377 311.92L441.563 239.667L475.613 239.667L484.712 277.029L485.263 277.029L494.637 239.667L525.241 239.667L535.305 277.029L535.718 277.029L544.541 239.667L577.075 239.667L551.986 311.92L520.279 311.92L509.112 274.832L508.837 274.832L497.946 311.92Z" fill="#2F80ED"/>
<path d="M669.922 275.239L643.196 275.239L643.196 312.283L610.409 312.283L610.409 214.785L643.058 214.785L643.058 247.835L669.784 247.835L669.784 214.785L702.71 214.785L702.71 312.283L669.922 312.283L669.922 275.239Z" fill="#2F80ED"/>
<path d="M753.648 282.263C748.964 282.263 745.199 282.768 742.352 283.777C739.505 284.787 738.081 286.669 738.081 289.424C738.081 290.433 738.311 291.306 738.77 292.04C739.229 292.683 739.826 293.233 740.561 293.692C741.296 294.152 742.076 294.519 742.903 294.794C743.821 294.978 744.648 295.07 745.383 295.07C748.413 295.07 750.847 294.106 752.684 292.178C754.521 290.25 755.439 287.771 755.439 284.741L755.439 282.263L753.648 282.263ZM753.373 266.288C753.373 264.085 752.592 262.478 751.031 261.469C749.561 260.367 747.587 259.816 745.107 259.816C742.168 259.816 739.367 260.459 736.704 261.744C734.132 262.937 731.836 264.36 729.815 266.013L713.973 250.314C718.381 246.091 723.616 242.832 729.678 240.537C735.739 238.242 741.984 237.094 748.413 237.094C755.301 237.094 760.996 238.058 765.496 239.986C769.996 241.914 773.532 244.576 776.104 247.973C778.767 251.37 780.604 255.318 781.614 259.816C782.716 264.315 783.267 269.088 783.267 274.138L783.267 312.283L754.475 312.283L754.475 306.499L754.199 306.499C752.363 309.254 749.745 311.227 746.347 312.421C742.949 313.614 739.642 314.211 736.428 314.211C733.581 314.211 730.642 313.798 727.611 312.972C724.672 312.146 721.963 310.814 719.483 308.978C717.095 307.142 715.121 304.755 713.559 301.817C711.998 298.88 711.217 295.253 711.217 290.938C711.217 285.889 712.503 281.804 715.075 278.682C717.738 275.469 721.09 272.99 725.131 271.246C729.172 269.41 733.673 268.17 738.632 267.528C743.683 266.885 748.597 266.564 753.373 266.564L753.373 266.288Z" fill="#2F80ED"/>
<path d="M836.557 312.283L836.557 274.276C836.557 270.603 836.097 267.941 835.179 266.288C834.261 264.636 832.745 263.81 830.633 263.81C829.071 263.81 827.556 264.544 826.087 266.013C824.709 267.482 824.02 270.098 824.02 273.862L824.02 312.283L792.197 312.283L792.197 239.848L823.194 239.848L823.194 247.835L823.469 247.835C824.388 246.642 825.49 245.494 826.775 244.393C828.153 243.199 829.668 242.143 831.322 241.225C833.067 240.215 834.995 239.435 837.108 238.884C839.22 238.242 841.516 237.92 843.996 237.92C848.772 237.92 852.904 238.792 856.394 240.537C859.884 242.189 862.64 244.806 864.66 248.386C867.048 245.448 869.987 242.97 873.477 240.95C876.967 238.93 881.375 237.92 886.702 237.92C891.845 237.92 896.07 238.93 899.376 240.95C902.774 242.97 905.438 245.494 907.367 248.524C909.387 251.554 910.765 254.859 911.499 258.439C912.326 261.928 912.739 265.187 912.739 268.216L912.739 312.283L880.916 312.283L880.916 273.725C880.916 269.777 880.411 267.161 879.401 265.875C878.482 264.498 877.013 263.81 874.992 263.81C873.156 263.81 871.594 264.682 870.308 266.426C869.023 268.079 868.38 270.557 868.38 273.862L868.38 312.283L836.557 312.283Z" fill="#2F80ED"/>
<path d="M973.435 314.211C969.854 314.211 966.318 313.569 962.828 312.283C959.338 310.906 956.491 309.024 954.286 306.637L954.011 306.637L954.011 345.333L922.463 345.333L922.463 239.848L952.358 239.848L952.358 247.147L952.633 247.147C955.297 244.117 958.511 241.822 962.277 240.261C966.042 238.701 969.716 237.92 973.298 237.92C978.716 237.92 983.492 239.022 987.625 241.225C991.758 243.429 995.202 246.321 997.957 249.901C1000.71 253.481 1002.78 257.521 1004.16 262.019C1005.63 266.518 1006.36 271.108 1006.36 275.79C1006.36 280.564 1005.63 285.246 1004.16 289.837C1002.78 294.427 1000.71 298.558 997.957 302.23C995.202 305.811 991.758 308.703 987.625 310.906C983.584 313.109 978.854 314.211 973.435 314.211ZM976.88 275.79C976.88 272.577 975.869 269.777 973.849 267.39C971.828 265.003 968.889 263.81 965.032 263.81C961.266 263.81 958.236 265.003 955.94 267.39C953.735 269.777 952.633 272.577 952.633 275.79C952.633 279.187 953.735 282.079 955.94 284.466C958.236 286.853 961.266 288.046 965.032 288.046C968.889 288.046 971.828 286.899 973.849 284.604C975.869 282.217 976.88 279.279 976.88 275.79Z" fill="#2F80ED"/>
<path d="M1073.36 289.286C1073.36 294.152 1072.3 298.237 1070.19 301.542C1068.17 304.847 1065.55 307.509 1062.34 309.529C1059.22 311.457 1055.77 312.834 1052.01 313.66C1048.24 314.578 1044.66 315.037 1041.26 315.037C1035.02 315.037 1028.86 314.119 1022.8 312.283C1016.83 310.539 1011.64 308.014 1007.23 304.709L1022.8 286.669C1025 288.689 1027.58 290.342 1030.52 291.627C1033.55 292.82 1036.44 293.417 1039.19 293.417C1040.3 293.417 1041.31 293.233 1042.23 292.866C1043.24 292.407 1043.74 291.627 1043.74 290.525C1043.74 289.332 1042.87 288.414 1041.12 287.771C1039.47 287.037 1036.53 286.164 1032.31 285.155C1030.01 284.604 1027.67 283.823 1025.28 282.813C1022.89 281.712 1020.69 280.289 1018.67 278.544C1016.74 276.8 1015.13 274.689 1013.85 272.21C1012.56 269.639 1011.92 266.61 1011.92 263.121C1011.92 258.439 1012.93 254.445 1014.95 251.14C1017.06 247.835 1019.68 245.173 1022.8 243.153C1026.02 241.042 1029.46 239.527 1033.13 238.609C1036.9 237.599 1040.43 237.094 1043.74 237.094C1049.34 237.094 1054.9 237.92 1060.41 239.573C1065.92 241.225 1070.88 243.52 1075.29 246.458L1060.41 264.223C1058.11 262.754 1055.77 261.606 1053.38 260.78C1051 259.954 1048.65 259.541 1046.36 259.541C1044.8 259.541 1043.51 259.77 1042.5 260.229C1041.49 260.596 1040.99 261.377 1040.99 262.57C1040.99 263.488 1041.54 264.223 1042.64 264.774C1043.83 265.233 1046.5 265.875 1050.63 266.701C1053.48 267.252 1056.23 268.124 1058.89 269.318C1061.65 270.42 1064.08 271.889 1066.2 273.725C1068.4 275.469 1070.15 277.626 1071.43 280.197C1072.72 282.768 1073.36 285.797 1073.36 289.286Z" fill="#2F80ED"/>
<path d="M1132.42 237.92C1137.47 237.92 1141.65 238.838 1144.95 240.674C1148.35 242.511 1151.02 244.898 1152.94 247.835C1154.96 250.681 1156.34 253.895 1157.08 257.475C1157.9 261.055 1158.32 264.636 1158.32 268.216L1158.32 312.283L1126.36 312.283L1126.36 273.725C1126.36 270.052 1125.76 267.482 1124.57 266.013C1123.46 264.544 1121.76 263.81 1119.47 263.81C1117.63 263.81 1115.98 264.636 1114.51 266.288C1113.04 267.849 1112.3 270.374 1112.3 273.862L1112.3 312.283L1080.48 312.283L1080.48 208.175L1112.3 208.175L1112.3 247.835L1112.58 247.835C1114.42 245.173 1117.03 242.878 1120.43 240.95C1123.83 238.93 1127.83 237.92 1132.42 237.92Z" fill="#2F80ED"/>
<path d="M1168.24 239.848L1200.06 239.848L1200.06 312.283L1168.24 312.283L1168.24 239.848ZM1167.69 218.916C1167.69 216.713 1168.1 214.647 1168.93 212.72C1169.85 210.7 1171.04 208.955 1172.51 207.487C1174.07 206.018 1175.86 204.87 1177.88 204.044C1179.9 203.126 1182.06 202.667 1184.36 202.667C1186.56 202.667 1188.63 203.126 1190.56 204.044C1192.48 204.87 1194.18 206.018 1195.65 207.487C1197.21 208.955 1198.41 210.7 1199.23 212.72C1200.15 214.647 1200.61 216.713 1200.61 218.916C1200.61 221.212 1200.15 223.369 1199.23 225.389C1198.41 227.317 1197.21 229.015 1195.65 230.484C1194.18 231.861 1192.48 232.963 1190.56 233.789C1188.63 234.615 1186.56 235.028 1184.36 235.028C1182.06 235.028 1179.9 234.615 1177.88 233.789C1175.86 232.963 1174.07 231.861 1172.51 230.484C1171.04 229.015 1169.85 227.317 1168.93 225.389C1168.1 223.369 1167.69 221.212 1167.69 218.916Z" fill="#2F80ED"/>
<path d="M1210.65 239.848L1241.23 239.848L1241.23 248.111L1241.51 248.111C1243.07 245.173 1245.37 242.74 1248.4 240.812C1251.52 238.884 1255.15 237.92 1259.28 237.92C1261.76 237.92 1263.78 238.15 1265.34 238.609L1262.86 265.6C1261.85 265.324 1260.7 265.141 1259.42 265.049C1258.22 264.865 1257.12 264.774 1256.11 264.774C1251.98 264.774 1248.67 265.967 1246.19 268.354C1243.71 270.741 1242.47 273.679 1242.47 277.167L1242.47 312.283L1210.65 312.283L1210.65 239.848Z" fill="#2F80ED"/>
<path d="M1313.66 266.426C1313.66 263.856 1312.7 261.744 1310.77 260.091C1308.93 258.439 1306.41 257.613 1303.19 257.613C1299.7 257.613 1296.99 258.577 1295.06 260.505C1293.13 262.433 1292.03 264.406 1291.76 266.426L1313.66 266.426ZM1341.08 276.754C1341.08 277.948 1341.03 279.187 1340.94 280.472C1340.94 281.666 1340.89 282.676 1340.8 283.502L1292.03 283.502C1292.12 284.787 1292.54 285.935 1293.27 286.945C1294.1 287.955 1295.06 288.827 1296.16 289.561C1297.36 290.296 1298.64 290.847 1300.02 291.214C1301.49 291.581 1302.96 291.765 1304.43 291.765C1307.37 291.765 1309.8 291.26 1311.73 290.25C1313.75 289.148 1315.27 287.955 1316.28 286.669L1338.87 298.099C1335.66 303.332 1330.97 307.463 1324.82 310.493C1318.76 313.523 1311.69 315.037 1303.6 315.037C1298.37 315.037 1293.27 314.211 1288.31 312.559C1283.35 310.906 1278.94 308.473 1275.09 305.26C1271.32 301.955 1268.29 297.87 1265.99 293.004C1263.7 288.138 1262.55 282.492 1262.55 276.066C1262.55 270.098 1263.61 264.728 1265.72 259.954C1267.83 255.088 1270.68 251.003 1274.26 247.698C1277.93 244.301 1282.2 241.684 1287.07 239.848C1292.03 238.012 1297.31 237.094 1302.92 237.094C1308.61 237.094 1313.8 238.104 1318.48 240.124C1323.17 242.052 1327.16 244.806 1330.47 248.386C1333.87 251.875 1336.48 256.052 1338.32 260.918C1340.16 265.783 1341.08 271.062 1341.08 276.754Z" fill="#2F80ED"/>
<g filter="url(#filter0_d)">
<path d="M259.075 146.447C259.075 138.619 260.455 131.574 263.213 125.311C265.972 118.956 269.742 113.569 274.523 109.148C279.397 104.727 285.144 101.32 291.765 98.9251C298.385 96.5305 305.558 95.3333 313.282 95.3333C321.006 95.3333 328.178 96.5305 334.799 98.9251C341.419 101.32 347.166 104.727 352.04 109.148C356.914 113.569 360.73 118.956 363.488 125.311C366.247 131.574 367.626 138.619 367.626 146.447C367.626 154.276 366.247 161.413 363.488 167.86C360.73 174.307 356.914 179.833 352.04 184.438C347.166 188.95 341.419 192.45 334.799 194.937C328.178 197.423 321.006 198.667 313.282 198.667C305.558 198.667 298.385 197.423 291.765 194.937C285.144 192.45 279.397 188.95 274.523 184.438C269.742 179.833 265.972 174.307 263.213 167.86C260.455 161.413 259.075 154.276 259.075 146.447ZM293.972 146.447C293.972 149.671 294.431 152.618 295.351 155.289C296.362 157.96 297.696 160.262 299.351 162.196C301.098 164.13 303.167 165.65 305.558 166.755C307.948 167.768 310.523 168.274 313.282 168.274C316.04 168.274 318.569 167.768 320.868 166.755C323.259 165.65 325.328 164.13 327.075 162.196C328.822 160.262 330.155 157.96 331.075 155.289C332.086 152.618 332.592 149.671 332.592 146.447C332.592 143.316 332.086 140.461 331.075 137.882C330.155 135.211 328.822 133.001 327.075 131.251C325.328 129.409 323.259 127.982 320.868 126.969C318.569 125.956 316.04 125.449 313.282 125.449C310.523 125.449 307.948 125.956 305.558 126.969C303.167 127.982 301.098 129.409 299.351 131.251C297.696 133.001 296.362 135.211 295.351 137.882C294.431 140.461 293.972 143.316 293.972 146.447Z" fill="white"/>
<path d="M377.346 98.0962L419.414 98.0962C424.196 98.0962 428.932 98.6027 433.621 99.6158C438.403 100.537 442.633 102.241 446.311 104.727C450.081 107.122 453.115 110.391 455.414 114.536C457.713 118.588 458.862 123.699 458.862 129.87C458.862 135.856 457.391 141.152 454.449 145.757C451.506 150.269 447.276 153.769 441.759 156.256L466.586 195.904L428.794 195.904L410.035 160.953L409.07 160.953L409.07 195.904L377.346 195.904L377.346 98.0962ZM408.794 139.402L415.276 139.402C416.38 139.402 417.575 139.31 418.863 139.126C420.242 138.941 421.483 138.573 422.587 138.02C423.782 137.376 424.748 136.547 425.483 135.534C426.311 134.429 426.725 133.001 426.725 131.251C426.725 129.501 426.403 128.12 425.759 127.107C425.115 126.094 424.288 125.357 423.276 124.897C422.265 124.344 421.161 124.022 419.966 123.93C418.771 123.745 417.667 123.653 416.656 123.653L408.794 123.653L408.794 139.402Z" fill="white"/>
<path d="M521.326 198.39C513.602 198.39 506.43 197.193 499.809 194.798C493.28 192.404 487.579 188.996 482.706 184.576C477.924 180.063 474.154 174.629 471.396 168.274C468.637 161.92 467.258 154.828 467.258 147C467.258 139.172 468.637 132.08 471.396 125.725C474.154 119.371 477.924 113.937 482.706 109.424C487.487 104.911 493.097 101.458 499.533 99.0632C505.97 96.5766 512.866 95.3333 520.223 95.3333C527.855 95.3333 535.073 96.5766 541.878 99.0632C548.774 101.55 554.383 104.957 558.705 109.286L539.533 132.356C537.51 129.962 535.119 128.074 532.361 126.692C529.602 125.219 526.2 124.482 522.154 124.482C519.487 124.482 516.866 125.035 514.292 126.14C511.809 127.153 509.602 128.673 507.671 130.699C505.74 132.633 504.177 134.981 502.981 137.744C501.786 140.507 501.188 143.592 501.188 147C501.188 153.815 502.936 159.387 506.43 163.716C510.016 167.952 515.717 170.07 523.533 170.07C524.912 170.07 526.338 169.978 527.809 169.794C529.28 169.518 530.43 169.149 531.257 168.689L531.257 161.229L515.533 161.229L515.533 135.396L560.36 135.396L560.36 188.858C558.061 190.24 555.395 191.529 552.36 192.726C549.418 193.831 546.245 194.798 542.843 195.627C539.533 196.456 536.039 197.101 532.361 197.561C528.682 198.114 525.004 198.39 521.326 198.39Z" fill="white"/>
<path d="M599.769 98.0962L634.666 98.0962L672.734 195.904L637.01 195.904L631.907 181.536L600.873 181.536L596.045 195.904L561.287 195.904L599.769 98.0962ZM616.735 132.218L608.735 156.394L624.597 156.394L616.735 132.218Z" fill="white"/>
<path d="M675.543 98.0962L708.233 98.0962L736.095 147.691L736.646 147.691L735.267 98.0962L766.439 98.0962L766.439 195.904L732.922 195.904L705.888 149.21L705.336 149.21L706.716 195.904L675.543 195.904L675.543 98.0962Z" fill="white"/>
<path d="M780.51 98.0962L813.613 98.0962L813.613 195.904L780.51 195.904L780.51 98.0962Z" fill="white"/>
<path d="M824.657 168.413L861.209 125.311L826.175 125.311L826.175 98.0962L904.105 98.0962L904.105 121.857L865.209 167.86L905.208 167.86L905.208 195.904L824.657 195.904L824.657 168.413Z" fill="white"/>
<path d="M916.225 98.0962L983.397 98.0962L983.397 125.449L947.122 125.449L947.122 133.876L981.19 133.876L981.19 159.433L947.122 159.433L947.122 168.551L985.742 168.551L985.742 195.904L916.225 195.904L916.225 98.0962Z" fill="white"/>
</g>
<defs>
<filter id="filter0_d" x="249.075" y="85.3333" width="746.667" height="123.333" filterUnits="userSpaceOnUse" color-interpolation-filters="sRGB">
<feFlood flood-opacity="0" result="BackgroundImageFix"/>
<feColorMatrix in="SourceAlpha" type="matrix" values="0 0 0 0 0 0 0 0 0 0 0 0 0 0 0 0 0 0 127 0"/>
<feOffset/>
<feGaussianBlur stdDeviation="5"/>
<feColorMatrix type="matrix" values="0 0 0 0 0 0 0 0 0 0 0 0 0 0 0 0 0 0 0.1 0"/>
<feBlend mode="normal" in2="BackgroundImageFix" result="effect1_dropShadow"/>
<feBlend mode="normal" in="SourceGraphic" in2="effect1_dropShadow" result="shape"/>
</filter>
</defs>
</svg>
