<?xml version="1.0" encoding="UTF-8"?>
<svg width="19px" height="16px" viewBox="0 0 19 16" version="1.1" xmlns="http://www.w3.org/2000/svg" xmlns:xlink="http://www.w3.org/1999/xlink" role="img" alt="twitter">
    <g stroke="none" stroke-width="1" fill="none" fill-rule="evenodd">
        <g transform="translate(-744.000000, -4354.000000)" fill="#0060DD" fill-rule="nonzero">
            <g transform="translate(-36.000000, 4274.000000)">
                <g transform="translate(632.000000, 62.000000)">
                    <path d="M167,19.8183594 C166.471191,20.6162109 165.8125,21.293457 165.061035,21.8408203 L165.061035,22.3510742 L165.061035,22.3510742 C165.061035,27.5 161.145996,33.4375 153.983887,33.4375 C151.785156,33.4375 149.716309,32.9550781 148,31.8510742 C148.306152,31.8974609 148.612305,31.9160156 148.927734,31.9160156 C150.746094,31.9160156 152.443848,31.1274414 153.76123,30.0698242 C152.072754,30.0512695 150.616211,28.9008789 150.133789,27.3608398 C150.375,27.4072266 150.616211,27.4350586 150.857422,27.4350586 C151.209961,27.4350586 151.5625,27.3886719 151.896484,27.2958984 C150.152344,26.9507039 148.826259,25.4313939 148.771763,23.5915 L148.77002,23.4272461 L148.77002,23.4272461 C149.298828,23.7148438 149.892578,23.8911133 150.532715,23.909668 C149.475098,23.2045898 148.788574,22.0170898 148.788574,20.6811523 C148.788574,19.9575195 148.992676,19.3637695 149.317383,18.7885742 C151.256348,21.1450195 154.11377,22.6108398 157.342285,22.7871094 C157.277344,22.5087891 157.258789,22.1933594 157.258789,21.887207 C157.258789,19.7348633 158.993652,18 161.145996,18 C162.268555,18 163.279785,18.4824219 164.012695,19.2246094 C164.884766,19.0483398 165.729004,18.7236328 166.471191,18.2783203 C166.183594,19.1875 165.571289,19.9575195 164.754883,20.4399414 C165.552734,20.347168 166.294922,20.1337891 167,19.8183594 Z"></path>
                </g>
            </g>
        </g>
    </g>
</svg>